<svg width="60" height="50" viewBox="0 0 60 50" fill="none" xmlns="http://www.w3.org/2000/svg">
<g clip-path="url(#clip0_161_1061)">
<path d="M30.8043 23.566H29.1948C24.5757 23.566 20.8183 19.9552 20.8183 15.5165V7.97014C20.8183 3.53143 24.5757 -0.0793457 29.1948 -0.0793457H30.8043C35.4234 -0.0793457 39.1808 3.53143 39.1808 7.97014V15.5165C39.1817 19.9552 35.4234 23.566 30.8043 23.566ZM29.1957 4.22714C27.0487 4.22714 25.3016 5.90608 25.3016 7.96926V15.5156C25.3016 17.5788 27.0487 19.2577 29.1957 19.2577H30.8052C32.9532 19.2577 34.7003 17.5788 34.7003 15.5156V7.96926C34.7003 5.90608 32.9532 4.22714 30.8052 4.22714H29.1957Z" fill="#C42126"/>
<path d="M15.8243 10.9135C17.0691 9.85842 17.8365 8.42529 17.8365 6.8484C17.8365 3.0282 13.9793 -0.0803223 9.23742 -0.0803223C4.49557 -0.0803223 0.639299 3.02731 0.639299 6.8484C0.639299 8.0375 1.64215 9.00209 2.88048 9.00209C4.11789 9.00209 5.12166 8.03839 5.12166 6.8484C5.12166 5.45254 7.04519 4.22706 9.23835 4.22706C11.4315 4.22706 13.355 5.45165 13.355 6.8484C13.355 7.58493 12.1989 8.40843 10.6512 8.40843H8.6732V12.7158C11.5266 12.7158 13.9377 14.3113 13.9377 16.1997C13.9377 17.8582 11.7861 19.2585 9.23835 19.2585C6.69059 19.2585 4.53897 17.8573 4.53897 16.1997C4.53897 15.0106 3.53612 14.046 2.29779 14.046C1.05946 14.046 0.0566101 15.0097 0.0566101 16.1997C0.0566101 20.2613 4.17514 23.5659 9.23835 23.5659C14.3016 23.5659 18.4201 20.2613 18.4201 16.1997C18.4192 14.1614 17.4339 12.3041 15.8243 10.9135Z" fill="#C42126"/>
<path d="M51.5669 23.566H49.9573C45.3383 23.566 41.5808 19.9552 41.5808 15.5165V7.97014C41.5808 3.53143 45.3383 -0.0793457 49.9573 -0.0793457H51.5669C56.1859 -0.0793457 59.9434 3.53143 59.9434 7.97014V15.5165C59.9434 19.9552 56.1859 23.566 51.5669 23.566ZM49.9573 4.22714C47.8094 4.22714 46.0623 5.90608 46.0623 7.96926V15.5156C46.0623 17.5788 47.8094 19.2577 49.9573 19.2577H51.5669C53.7139 19.2577 55.461 17.5788 55.461 15.5156V7.96926C55.461 5.90608 53.7139 4.22714 51.5669 4.22714H49.9573Z" fill="#C42126"/>
<path d="M5.05334 28.2744C5.99801 28.2744 6.78571 28.577 7.41549 29.1822C8.05913 29.7874 8.37494 30.5443 8.37494 31.4388C8.37494 32.3333 8.06005 33.0761 7.41549 33.6946C6.78571 34.2998 5.99801 34.6024 5.05334 34.6024H3.00608V37.9043H1.35959V28.2744H5.05334ZM5.05334 33.1169C6.02664 33.1169 6.72845 32.415 6.72845 31.4388C6.72845 30.4618 6.02664 29.7599 5.05334 29.7599H3.00608V33.1169H5.05334Z" fill="#363636"/>
<path d="M11.3724 35.0985C11.6014 36.1438 12.475 36.7215 13.6635 36.7215C14.4798 36.7215 15.0948 36.4322 15.5104 35.8687L16.7847 36.584C16.0829 37.5885 15.0385 38.0837 13.6496 38.0837C12.4898 38.0837 11.5451 37.7393 10.8295 37.0658C10.1138 36.3781 9.75549 35.5111 9.75549 34.4658C9.75549 33.4337 10.1138 32.581 10.8147 31.8932C11.5165 31.1913 12.4325 30.8479 13.5342 30.8479C14.5795 30.8479 15.4383 31.2055 16.1115 31.9074C16.7847 32.6094 17.1282 33.4755 17.1282 34.48C17.1282 34.6317 17.1144 34.8376 17.071 35.0994H11.3724V35.0985ZM15.5667 33.8872C15.3515 32.7726 14.5361 32.195 13.5194 32.195C12.3744 32.195 11.5728 32.8419 11.3577 33.8872H15.5667Z" fill="#363636"/>
<path d="M24.6191 31.0262H25.8076V37.9052H24.2895V33.5304L20.6243 37.9052H19.4359V31.0262H20.9531V35.3868L24.6191 31.0262ZM20.6105 30.0625V28.7695H24.6191V30.0625H20.6105Z" fill="#363636"/>
<path d="M34.0151 31.0261V32.4566H31.6816V37.9043H30.1357V32.4566H27.7874V31.0261H34.0151Z" fill="#363636"/>
<path d="M41.1932 31.0261H42.3817V37.9052H40.8636V33.5303L37.1984 37.9052H36.01V31.0261H37.5272V35.3867L41.1932 31.0261Z" fill="#363636"/>
<path d="M49.9444 31.0261H51.4902V37.9052H49.9444V35.1676H46.6662V37.9052H45.1204V31.0261H46.6662V33.7637H49.9444V31.0261Z" fill="#363636"/>
<path d="M59.0264 31.0263V32.4567H55.7769V37.9044H54.231V31.0254H59.0264V31.0263Z" fill="#363636"/>
<path d="M5.05334 40.271C5.99801 40.271 6.78571 40.5736 7.41549 41.1788C8.05913 41.784 8.37494 42.5409 8.37494 43.4354C8.37494 44.3299 8.06005 45.0726 7.41549 45.6912C6.78571 46.2964 5.99801 46.599 5.05334 46.599H3.00608V49.9009H1.35959V40.271H5.05334ZM5.05334 45.1135C6.02664 45.1135 6.72845 44.4115 6.72845 43.4354C6.72845 42.4584 6.02664 41.7565 5.05334 41.7565H3.00608V45.1135H5.05334Z" fill="#363636"/>
<path d="M11.1102 44.1773C11.4971 43.3245 12.2414 42.8977 13.3153 42.8977V44.5074C12.728 44.4666 12.2127 44.6041 11.7686 44.9201C11.3244 45.2227 11.1102 45.732 11.1102 46.4331V49.9001H9.56433V43.0211H11.1102V44.1773Z" fill="#363636"/>
<path d="M14.8325 49.0339C14.1021 48.332 13.7299 47.4792 13.7299 46.4614C13.7299 45.4435 14.1021 44.5908 14.8325 43.8888C15.563 43.1869 16.4642 42.8435 17.5096 42.8435C18.5688 42.8435 19.4562 43.1878 20.1866 43.8888C20.9171 44.5908 21.2892 45.4435 21.2892 46.4614C21.2892 47.4792 20.9171 48.332 20.1866 49.0339C19.4562 49.7358 18.5688 50.0793 17.5096 50.0793C16.4642 50.0801 15.563 49.7358 14.8325 49.0339ZM17.5096 48.6355C18.1394 48.6355 18.6694 48.4287 19.0988 48.0161C19.5282 47.6034 19.7434 47.0808 19.7434 46.4614C19.7434 45.842 19.5282 45.3193 19.0988 44.9067C18.6694 44.494 18.1394 44.2873 17.5096 44.2873C16.8798 44.2873 16.3497 44.494 15.9203 44.9067C15.4909 45.3193 15.2767 45.842 15.2767 46.4614C15.2767 47.0808 15.4919 47.6034 15.9203 48.0161C16.3497 48.4287 16.8798 48.6355 17.5096 48.6355Z" fill="#363636"/>
<path d="M32.3234 43.8889C33.0252 44.5908 33.3687 45.4436 33.3687 46.4614C33.3687 47.4659 33.0252 48.332 32.3234 49.0339C31.6216 49.7359 30.7914 50.0793 29.8033 50.0793C28.7155 50.0793 27.8853 49.6942 27.298 48.9097V49.9H25.7522V40.271H27.298V43.9989C27.8853 43.2287 28.7155 42.8435 29.8033 42.8435C30.7923 42.8435 31.6225 43.1869 32.3234 43.8889ZM29.5605 48.663C30.205 48.663 30.7489 48.4563 31.1783 48.0436C31.6077 47.6177 31.8229 47.0941 31.8229 46.4614C31.8229 45.8287 31.6077 45.306 31.1783 44.8934C30.7489 44.4666 30.205 44.2607 29.5605 44.2607C28.9159 44.2607 28.372 44.4674 27.9426 44.8934C27.5132 45.306 27.298 45.8287 27.298 46.4614C27.298 47.0941 27.5132 47.6168 27.9426 48.0436C28.3729 48.4563 28.9168 48.663 29.5605 48.663Z" fill="#363636"/>
<path d="M35.4741 49.0339C34.7437 48.332 34.3716 47.4792 34.3716 46.4614C34.3716 45.4435 34.7437 44.5908 35.4741 43.8888C36.2046 43.1869 37.1058 42.8435 38.1512 42.8435C39.2104 42.8435 40.0978 43.1878 40.8282 43.8888C41.5587 44.5908 41.9308 45.4435 41.9308 46.4614C41.9308 47.4792 41.5587 48.332 40.8282 49.0339C40.0978 49.7358 39.2104 50.0793 38.1512 50.0793C37.1058 50.0801 36.2037 49.7358 35.4741 49.0339ZM38.1512 48.6355C38.781 48.6355 39.311 48.4287 39.7404 48.0161C40.1698 47.6034 40.385 47.0808 40.385 46.4614C40.385 45.842 40.1698 45.3193 39.7404 44.9067C39.311 44.494 38.781 44.2873 38.1512 44.2873C37.5214 44.2873 36.9913 44.494 36.5619 44.9067C36.1325 45.3193 35.9183 45.842 35.9183 46.4614C35.9183 47.0808 36.1335 47.6034 36.5619 48.0161C36.9913 48.4287 37.5214 48.6355 38.1512 48.6355Z" fill="#363636"/>
<path d="M49.8481 45.677V49.9001H48.3014V45.8279C48.3014 44.7958 47.6854 44.2323 46.6983 44.2323C45.6105 44.2323 44.88 44.8792 44.88 46.213V49.9001H43.3342V43.0211H44.88V43.9013C45.3528 43.1994 46.0823 42.8418 47.099 42.8418C48.7455 42.8436 49.8481 43.9164 49.8481 45.677Z" fill="#363636"/>
<path d="M52.2105 49.0339C51.4801 48.332 51.1079 47.4792 51.1079 46.4614C51.1079 45.4435 51.4801 44.5908 52.2105 43.8888C52.941 43.1869 53.8422 42.8435 54.8876 42.8435C55.9468 42.8435 56.8342 43.1878 57.5646 43.8888C58.2951 44.5908 58.6672 45.4435 58.6672 46.4614C58.6672 47.4792 58.2951 48.332 57.5646 49.0339C56.8342 49.7358 55.9468 50.0793 54.8876 50.0793C53.8422 50.0801 52.941 49.7358 52.2105 49.0339ZM54.8876 48.6355C55.5174 48.6355 56.0474 48.4287 56.4768 48.0161C56.9062 47.6034 57.1214 47.0808 57.1214 46.4614C57.1214 45.842 56.9062 45.3193 56.4768 44.9067C56.0474 44.494 55.5174 44.2873 54.8876 44.2873C54.2578 44.2873 53.7277 44.494 53.2983 44.9067C52.8689 45.3193 52.6538 45.842 52.6538 46.4614C52.6538 47.0808 52.8689 47.6034 53.2983 48.0161C53.7277 48.4287 54.2578 48.6355 54.8876 48.6355Z" fill="#363636"/>
</g>
<defs>
<clipPath id="clip0_161_1061">
<rect width="60" height="50" fill="white"/>
</clipPath>
</defs>
</svg>
