<?xml version="1.0" encoding="utf-8"?><svg viewBox="0 0 24 24" xmlns="http://www.w3.org/2000/svg" xmlns:xlink="http://www.w3.org/1999/xlink"><style>:root>svg{display:none}:root>svg:target{display:block}</style><svg fill="none" viewBox="0 0 24 24" id="anketa" xmlns="http://www.w3.org/2000/svg"><g opacity=".5" stroke="#313130" stroke-width="1.5" stroke-linecap="round" stroke-linejoin="round"><path d="M4 21v-4a3 3 0 0 1 3-3h5"/><path d="m9 17 3-3-3-3M14 3v4a1 1 0 0 0 1 1h4"/><path d="M5 11V5a2 2 0 0 1 2-2h7l5 5v11a2 2 0 0 1-2 2H7.5"/></g></svg><svg fill="none" viewBox="0 0 24 24" id="arrow-down" xmlns="http://www.w3.org/2000/svg"><path d="M12 3.515v16.97m0 0-7.071-7.07M12 20.484l7.071-7.07" stroke="#313130" stroke-width="1.5"/></svg><svg fill="none" viewBox="0 0 24 24" id="arrow-left" xmlns="http://www.w3.org/2000/svg"><path opacity=".8" d="M20.485 12H3.515m0 0 7.07 7.071M3.516 12l7.07-7.071" stroke="#fff" stroke-width="1.5"/></svg><svg fill="none" viewBox="0 0 24 24" id="arrow-left-dark" xmlns="http://www.w3.org/2000/svg"><path opacity=".8" d="M20.485 12H3.515m0 0 7.07 7.071M3.516 12l7.07-7.071" stroke="var(--arrow-lef-color)" stroke-width="1.5"/></svg><svg fill="none" viewBox="0 0 24 24" id="arrow-right" xmlns="http://www.w3.org/2000/svg"><path opacity=".8" d="M3.515 12h16.97m0 0-7.07 7.071M20.484 12l-7.07-7.071" stroke="#fff" stroke-width="1.5"/></svg><svg fill="none" viewBox="0 0 19 16" id="arrow-right-dark" xmlns="http://www.w3.org/2000/svg"><path opacity=".5" d="M.515 8h16.97m0 0-7.07 7.071M17.484 8 10.415.929" stroke="#313130" stroke-width="1.5"/></svg><svg fill="none" viewBox="0 0 14 14" id="arrow-top-right" xmlns="http://www.w3.org/2000/svg"><path d="M1 13 13 1m0 0v10m0-10H3" stroke="var(--arrow-btn-top-right)" stroke-width="1.5"/></svg><svg fill="none" viewBox="0 0 24 24" id="book" xmlns="http://www.w3.org/2000/svg"><g opacity=".5" stroke="#313130" stroke-width="1.5" stroke-linecap="round" stroke-linejoin="round"><path d="M20 6v12a2 2 0 0 1-2 2H8a2 2 0 0 1-2-2V6a2 2 0 0 1 2-2h10a2 2 0 0 1 2 2ZM10 16h6"/><path d="M11 11a2 2 0 1 0 4 0 2 2 0 0 0-4 0ZM4 8h3M4 12h3M4 16h3"/></g></svg><svg fill="none" viewBox="0 0 24 24" id="close" xmlns="http://www.w3.org/2000/svg"><path d="M17.657 6.343 6.343 17.657m0-11.314 11.314 11.314" stroke="#313130" stroke-width="1.5"/></svg><svg fill="none" viewBox="0 0 16 16" id="close-steps" xmlns="http://www.w3.org/2000/svg"><path opacity=".5" d="M13.657 2.343 2.343 13.657m0-11.314 11.314 11.314" stroke="#fff" stroke-width="1.5"/></svg><svg fill="none" viewBox="0 0 24 24" id="docx" xmlns="http://www.w3.org/2000/svg"><path d="M14 3v4a1 1 0 0 0 1 1h4" stroke="#313130" stroke-width="1.25" stroke-linecap="round" stroke-linejoin="round"/><path d="M5 12V5a2 2 0 0 1 2-2h7l5 5v4M2 15v6h1a2 2 0 0 0 2-2v-2a2 2 0 0 0-2-2H2ZM17 16.5a1.5 1.5 0 1 0-3 0v3a1.5 1.5 0 1 0 3 0M9.5 15a1.5 1.5 0 0 1 1.5 1.5v3a1.5 1.5 0 1 1-3 0v-3A1.5 1.5 0 0 1 9.5 15ZM19.5 15l3 6M19.5 21l3-6" stroke="#313130" stroke-width="1.25" stroke-linecap="round" stroke-linejoin="round"/></svg><svg fill="none" viewBox="0 0 20 20" id="plus" xmlns="http://www.w3.org/2000/svg"><path d="M0 10h20M10 0v20" stroke="#313130" stroke-width="2" stroke-linejoin="round"/></svg><svg fill="none" viewBox="0 0 24 24" id="status" xmlns="http://www.w3.org/2000/svg"><g opacity=".6" stroke="#fff" stroke-width="1.5" stroke-linecap="round" stroke-linejoin="round"><path d="M14 3v4a1 1 0 0 0 1 1h4"/><path d="M17 21H7a2 2 0 0 1-2-2V5a2 2 0 0 1 2-2h7l5 5v11a2 2 0 0 1-2 2ZM9 17h6M9 13h6"/></g></svg></svg>