<svg width="32" height="29" viewBox="0 0 32 29" fill="none" xmlns="http://www.w3.org/2000/svg">
<path opacity="0.2" d="M12.7882 28.89H0.00818179V15.12C-0.0518181 13.14 0.218182 11.28 0.818182 9.54C1.47818 7.8 2.37818 6.27 3.51818 4.95C4.65818 3.63 6.00818 2.55 7.56818 1.71C9.18818 0.81 10.9282 0.24 12.7882 0V5.94C10.5082 6.72 8.94818 7.89 8.10818 9.45C7.26818 10.95 6.84818 12.81 6.84818 15.03H12.7882V28.89ZM31.9582 28.89H19.1782V15.12C19.1182 13.14 19.3882 11.28 19.9882 9.54C20.6482 7.8 21.5482 6.27 22.6882 4.95C23.8282 3.63 25.1782 2.55 26.7382 1.71C28.3582 0.81 30.0982 0.24 31.9582 0V5.94C29.6782 6.72 28.1182 7.89 27.2782 9.45C26.4382 10.95 26.0182 12.81 26.0182 15.03H31.9582V28.89Z" fill="#313130"/>
</svg>
